<?xml version="1.0" encoding="utf-8"?>
<!-- Generator: Adobe Illustrator 22.1.0, SVG Export Plug-In . SVG Version: 6.00 Build 0)  -->
<svg version="1.1" id="Capa_1" xmlns="http://www.w3.org/2000/svg" xmlns:xlink="http://www.w3.org/1999/xlink" x="0px" y="0px"
	 viewBox="0 0 377.6 50" style="enable-background:new 0 0 377.6 50;" xml:space="preserve">
<style type="text/css">
	.st0{fill:#FFFFFF;}
</style>
<title>USS-logotipo</title>
<desc>Created with Sketch.</desc>
<path class="st0" d="M328.1,15.5L320,41h-10.4l8.3-25.4L328.1,15.5z M371.8,8.8l-0.3,2.8h-57.8l-9.9,29.5h-9.9l10.7-32.3
	C304.6,8.8,371.8,8.8,371.8,8.8z M169.5,8.2c1.4,0.8,1.7,1.7,0.7,3.6c-5.1,9.1-10.2,18.2-15.3,27.4c-0.6,1.2-0.1,2,1.2,2
	c5.9,0,6.3,0,12.2,0c-0.4-0.5-0.2-1.6,0.5-3l12.2-20l3.8,10.6l-6,0.1l-3,5.2h11l2.5,6.9h18.4l-2.5-6.9h4.5l-1.8-5.6l-4.8,0.1
	l-6.5-17.7c-0.7-1.6-2.5-2.5-5.3-2.5H185c-0.2,0-0.5,0-0.9,0L169.5,8.2z M164.1,8.3c-14.2,0-28.5,0-42.7,0c-1.7,0-3.2,0.9-3.7,2.6
	c-0.8,2.9,0.5,5.4,2.4,7.6L132.4,34h-25.5l-3.5,7.3h44.2c3.6-0.5,5.8-5,3.4-8.2l-16-17.6h25.4L164.1,8.3z M87.9,1.8
	c1.5,0.8,1.9,1.7,1,3.6c-0.4,0.8-0.8,1.7-1.2,2.6h-7.5l-3.5,6.8h8.1c-3.5,8.2-7.4,17.7-10.4,24.1c-0.5,1.2,0.1,2,1.4,2
	c5.9,0,13.3,0,19.1,0c-0.4-0.5-0.4-1.6,0.2-3l9.6-23.1h7.7l3-6.8h-7.9l1.6-3.7c0.5-1.5,0.2-2.5-1.8-2.4L87.9,1.8z M49.1,1.8
	c1.5,0.8,1.9,1.7,1,3.6C49.8,6.2,49.4,7.1,49,8h-7.5L38,14.8h8c-3.5,8.2-7.4,17.7-10.4,24.1c-0.5,1.2,0.1,2,1.4,2
	c5.9,0,13.3,0,19.1,0c-0.4-0.5-0.4-1.6,0.2-3L66,14.8h7.7l3-6.8h-7.9l1.6-3.7c0.5-1.5,0.2-2.5-1.8-2.4L49.1,1.8z M17.5,7.9
	c1.5,0.8,1.9,1.7,1,3.6C14.3,20.6,10,29.7,5.8,38.7c-0.5,1.2,0.1,2,1.4,2c5.9,0,11.8,0,17.6,0c-0.4-0.5-0.4-1.6,0.2-3l12.1-27.3
	c0.5-1.5,0.2-2.5-1.8-2.4L17.5,7.9z M293.5,22c-8.4,0-14.8,0-23.3,0c-1,0-1.9,0.5-2.2,1.5c-0.5,1.7,0.3,3.1,1.4,4.4l7.3,9h-13
	l-2.1,4.2h24.1c2.1-0.3,3.5-2.9,2-4.8l-9.5-10.2h13L293.5,22z M256.3,21.9c0.9,0.5,1.1,1,0.6,2.1c-2.5,5.2-5,10.4-7.5,15.6h-3.1
	c0-0.1,0.1-0.3,0.1-0.4l7.2-15.8c0.3-0.9,0.1-1.5-1.1-1.4l-8.8-0.1c0.9,0.5,1.1,1,0.6,2.1c-2.5,5.2-5.1,10.5-7.6,15.7
	c-0.3,0.7,0,1.2,0.8,1.2h4.5h0.1h0.2h0.2h0.2h0.2h0.2h0.2h0.2h0.2h0.2h0.2h0.2h0.2h0.2h0.2h0.2h0.2h0.2h0.2h0.2h0.2h0.2h0.2h0.2h0.2
	h0.2h3.8h0.2h0.2h0.2h0.2h0.2h0.2h0.2h0.2h0.2h0.2h0.2h0.2h0.2h0.2h0.2h0.2h0.2h0.2h0.2h0.2l0,0h5.1c-0.3-0.3-0.2-0.9,0.1-1.7
	l7.2-15.8c0.3-0.9,0.1-1.5-1.1-1.4L256.3,21.9z M229.8,22L229.8,22h-1.9c-0.1,0-0.3,0-0.5,0h-8.7c0.8,0.4,1,0.8,0.6,1.8l-2.3,4.6
	l0,0c-1.9,4-3.9,8.6-5.5,11.7c-0.3,0.6,0,1,0.8,1h8.3l0,0h2.9h2.7h5.4c1.3,0,1.9-0.8,2.2-1.5l2-4.5l0,0l0.2-0.5
	c1.2-2.8-2.1-3.3-3.7-3.5c1.2,0.1,4.9,0.7,5.9-1.4c0.9-2,1.6-3.5,2.5-5.5l0.5-1c0.2-0.7,0.1-1.1-0.7-1.2l0,0h-8.1L229.8,22z
	 M219.8,39.6c0-0.1,0-0.1,0.1-0.2l4-8.8c0.8,0,3.8,0.4,3.1,1.4c-1.3,2.9-2.5,5.4-3.6,7.6H219.8z M224.1,30.1l0.3-0.7l0.2-0.3
	l0.3-0.8l1.6-3.6l0.5-1c0.4-1.1,4.6-1.2,3.7,0.7l-2,4l0,0c-0.2,0.4-0.4,0.9-0.6,1.3C227.6,30.5,224.9,30.2,224.1,30.1z M324.2,44.5
	l9.2-28.3h37.2l-0.6,2.5h-28.7l-9.4,29.4H2l1.5-3.6H324.2z"/>
</svg>
