<?xml version="1.0" encoding="utf-8"?>
<!-- Generator: Adobe Illustrator 26.3.1, SVG Export Plug-In . SVG Version: 6.00 Build 0)  -->
<svg version="1.1" id="Capa_1" xmlns="http://www.w3.org/2000/svg" xmlns:xlink="http://www.w3.org/1999/xlink" x="0px" y="0px"
	 viewBox="0 0 600 75.2" style="enable-background:new 0 0 600 75.2;" xml:space="preserve">
<style type="text/css">
	.st0{fill-rule:evenodd;clip-rule:evenodd;fill:#F58220;}
</style>
<g>
	<polygon class="st0" points="58.94,9.97 35.8,63.41 5.09,63.4 28.23,9.95 	"/>
	<path class="st0" d="M429.8,34.16l-12.75,29.46l-33.97-0.02c-0.77,0-1.29-0.79-0.98-1.5l12.67-29.26l13.68,0.01
		c0.67,0,1.12,0.68,0.85,1.3L397.62,61.1l5.68,0l12.23-28.25l13.41,0.01C429.61,32.86,430.06,33.54,429.8,34.16z"/>
	<path class="st0" d="M479.41,32.88l-2.96,6.84l-23.57-0.01l13.73,17.58c0.89,1.13,1.08,2.66,0.51,3.98v0
		c-0.62,1.44-2.04,2.37-3.61,2.37l-41.11-0.02l2.87-6.62l23.43,0.01l-13.64-17.47c-0.89-1.13-1.08-2.66-0.51-3.98l0.14-0.33
		c0.62-1.44,2.04-2.37,3.61-2.37L479.41,32.88z"/>
	<polygon class="st0" points="122.64,10 117.41,22.07 104.78,22.06 86.87,63.44 54.54,63.42 72.46,22.04 59.36,22.04 64.58,9.97 
		77.68,9.98 82,0 114.33,0.02 110.01,9.99 	"/>
	<polygon class="st0" points="187.65,10.03 182.43,22.1 169.8,22.1 151.88,63.47 119.55,63.46 137.47,22.08 124.37,22.07 129.6,10 
		142.7,10.01 147.02,0.03 179.34,0.05 175.03,10.03 	"/>
	<path class="st0" d="M263.7,22.14l-39.65-0.02l22.74,29.1c1.72,2.2,2.09,5.15,0.99,7.71v0c-1.21,2.79-3.95,4.59-6.99,4.59
		l-69.27-0.04l5.02-11.6l39.8,0.02L193.5,22.68c-1.71-2.2-2.09-5.15-0.99-7.71l0.15-0.35c1.21-2.79,3.95-4.59,6.99-4.59l69.27,0.04
		L263.7,22.14z"/>
	<polygon class="st0" points="329.7,51.97 334.71,63.57 306.74,63.56 301.73,51.95 283.43,51.94 286.91,43.93 298.26,43.93 
		290.88,26.84 274.99,63.54 252.92,63.53 276.06,10.08 311.62,10.1 326.24,43.95 334.25,43.95 337.71,51.97 	"/>
	<polygon class="st0" points="595.39,23.34 550.18,23.34 540.62,23.34 520.76,69.32 2.46,69.32 0,75.2 534.71,75.2 554.62,29.21 
		592.93,29.21 	"/>
	<polygon class="st0" points="471.56,63.64 488.11,63.65 508.16,17.37 597.5,17.4 600,11.6 494.11,11.55 	"/>
	<path class="st0" d="M387.92,32.84l-34.19-0.02l-12.67,29.26c-0.31,0.71,0.21,1.5,0.98,1.5l31.29,0.02c1.63,0,3.1-0.96,3.74-2.46
		l3.52-8.12c0.72-1.67-0.12-3.6-1.83-4.2l-2.82-1l3.99,0c1.77,0,3.37-1.05,4.08-2.67l4.76-11
		C389.04,33.52,388.59,32.84,387.92,32.84z M365.22,50.92l-2.61,6.04l-1.78,4.12l-6.35,0l1.78-4.12l4.12-9.53l2.55,0
		C364.73,47.43,365.94,49.27,365.22,50.92z M371.84,35.65l-1.74,4.03l-2.06,4.77c-0.4,0.91-1.3,1.51-2.3,1.51l-4.71,0l4.71-10.87
		c0.19-0.44,0.62-0.72,1.1-0.72l4.15,0C371.66,34.35,372.1,35.03,371.84,35.65z"/>
	<polygon class="st0" points="531.3,23.34 528.87,28.95 528.75,29.21 513.86,63.65 497.45,63.65 514.88,23.34 	"/>
</g>
</svg>
